<svg preserveAspectRatio="none" overflow="visible" style="display: block;" width="193.123" height="33" viewBox="0 0 193.123 33" fill="none" xmlns="http://www.w3.org/2000/svg">
<g id="Group">
<path id="Vector" fill-rule="evenodd" clip-rule="evenodd" d="M190.138 0C190.637 0 191.129 0.129243 191.607 0.387728C192.085 0.646214 192.455 1.0124 192.723 1.4906C192.99 1.9688 193.123 2.46854 193.123 2.98982C193.123 3.51109 192.994 3.99791 192.731 4.4718C192.468 4.94569 192.102 5.31618 191.628 5.57898C191.154 5.84177 190.659 5.97532 190.142 5.97532C189.625 5.97532 189.13 5.84608 188.656 5.57898C188.182 5.31618 187.816 4.95 187.548 4.4718C187.286 3.99791 187.152 3.50248 187.152 2.98982C187.152 2.47715 187.286 1.97311 187.553 1.4906C187.82 1.0124 188.195 0.646214 188.673 0.387728C189.151 0.129243 189.638 0 190.142 0L190.138 0ZM190.138 0.49543C189.72 0.49543 189.31 0.603133 188.91 0.818537C188.513 1.03394 188.203 1.33982 187.979 1.74047C187.755 2.14112 187.643 2.5547 187.643 2.98551C187.643 3.41632 187.755 3.82558 187.975 4.22193C188.195 4.61397 188.505 4.92415 188.897 5.14386C189.293 5.36357 189.707 5.47558 190.138 5.47558C190.568 5.47558 190.978 5.36357 191.374 5.14386C191.77 4.92415 192.076 4.61397 192.296 4.22193C192.516 3.82558 192.623 3.41632 192.623 2.98551C192.623 2.5547 192.511 2.13681 192.287 1.74047C192.063 1.33982 191.753 1.03394 191.357 0.818537C190.96 0.603133 190.551 0.49543 190.133 0.49543H190.138ZM188.828 4.6312V1.42598H189.931C190.31 1.42598 190.581 1.45613 190.749 1.51645C190.922 1.57676 191.055 1.68016 191.154 1.82663C191.253 1.97311 191.305 2.13251 191.305 2.29621C191.305 2.52885 191.223 2.73564 191.051 2.90796C190.883 3.08029 190.659 3.17937 190.383 3.20091C190.495 3.2483 190.59 3.30431 190.655 3.36893C190.784 3.49386 190.943 3.70496 191.129 4.00652L191.521 4.63551H190.892L190.607 4.13146C190.383 3.73512 190.202 3.48525 190.064 3.38185C189.97 3.30861 189.832 3.27415 189.651 3.27415H189.345V4.63551H188.828V4.6312ZM189.345 2.82611H189.974C190.276 2.82611 190.478 2.78303 190.59 2.69256C190.698 2.60209 190.754 2.48577 190.754 2.33929C190.754 2.24452 190.728 2.15835 190.676 2.08512C190.624 2.00757 190.551 1.95587 190.456 1.9171C190.362 1.87833 190.189 1.8611 189.935 1.8611H189.345V2.82611Z" fill="#064978"/>
<path id="Vector_2" fill-rule="evenodd" clip-rule="evenodd" d="M104.364 17.465H101.744L104.364 9.38735H104.428L106.979 17.465H104.364ZM104.364 2.98553H101.787C101.525 2.98553 101.301 3.14062 101.206 3.38618L93.0419 25.2196C92.9687 25.4178 92.9945 25.6202 93.1152 25.7926C93.2358 25.9649 93.4167 26.0597 93.6235 26.0597H98.4658C98.7329 26.0597 98.9613 25.896 99.0517 25.6461L100.361 21.9239H108.409L109.688 25.6418C109.775 25.896 110.007 26.0597 110.274 26.0597H115.207C115.418 26.0597 115.595 25.9649 115.715 25.7926C115.836 25.6202 115.858 25.4178 115.784 25.2196L107.621 3.38618C107.53 3.14062 107.302 2.98553 107.039 2.98553H104.368H104.364ZM116.913 26.0597H121.165C121.505 26.0597 121.786 25.7796 121.786 25.4393V16.9136C121.786 15.0697 122.69 13.3249 124.758 13.3249C127.765 13.3249 127.507 15.6513 127.507 17.9475V25.4393C127.507 25.7796 127.787 26.0597 128.127 26.0597H132.379C132.719 26.0597 132.999 25.7796 132.999 25.4393V15.2981C132.999 12.8726 132.547 8.80145 126.955 8.80145C124.952 8.80145 122.69 9.86986 121.686 11.5802H121.622V9.90432C121.622 9.56399 121.342 9.28396 121.001 9.28396H116.909C116.568 9.28396 116.288 9.56399 116.288 9.90432V25.435C116.288 25.7753 116.568 26.0554 116.909 26.0554L116.913 26.0597ZM142.038 21.3595H142.021C139.281 21.3595 138.449 19.0461 138.449 17.0902C138.449 15.1343 139.281 12.7951 142.021 12.7951H142.038C144.765 12.8037 145.626 15.1387 145.626 17.0902C145.626 19.0418 144.765 21.3466 142.038 21.3595ZM134.443 27.3478C134.395 27.1582 134.434 26.973 134.559 26.8179C134.68 26.6628 134.852 26.5809 135.046 26.5809H139.302C139.578 26.5809 139.811 26.7533 139.892 27.0118C140.366 28.5024 141.616 28.8987 142.99 28.8039C145.062 28.6661 145.605 27.2875 145.605 25.2239V23.6428C144.795 24.8922 143.485 25.2454 142.038 25.3316C141.723 25.3488 141.405 25.3574 141.081 25.3574C136.007 25.3574 133.715 21.7386 133.715 17.0213C133.715 12.5624 136.334 8.81438 141.081 8.81438C141.413 8.81438 141.732 8.82299 142.038 8.84884C143.572 8.96947 144.817 9.45628 145.635 10.9038V9.92156C145.635 9.58122 145.915 9.30119 146.255 9.30119H150.284C150.624 9.30119 150.904 9.58122 150.904 9.92156V21.9153C150.904 27.1238 150.378 33 142.762 33C138.734 33 135.472 31.5568 134.443 27.3607V27.3478ZM160.554 15.9443H157.146C157.461 13.9582 158.697 12.5883 160.554 12.5236C160.601 12.5236 160.649 12.5236 160.701 12.5236C162.544 12.5236 163.867 14.0746 163.966 15.9486H160.554V15.9443ZM160.554 8.80576C155.673 8.879 151.649 12.5409 151.649 17.6287C151.649 23.156 155.242 26.4345 160.554 26.5465C160.645 26.5465 160.739 26.5465 160.83 26.5465C164.293 26.5465 167.619 25.1119 168.895 21.8334C168.972 21.6353 168.946 21.4328 168.83 21.2605C168.709 21.0881 168.528 20.989 168.317 20.989H164.41C164.181 20.989 163.988 21.1011 163.871 21.2992C163.281 22.3202 162.101 22.8329 160.89 22.8329C160.774 22.8329 160.662 22.8329 160.55 22.82C158.434 22.6778 157.233 21.2001 157.142 19.0159H169.455C169.713 13.3293 166.706 8.80145 160.696 8.80145C160.649 8.80145 160.597 8.80145 160.55 8.80145L160.554 8.80576ZM171.049 26.0597H175.301C175.641 26.0597 175.921 25.7796 175.921 25.4393V3.6059C175.921 3.26556 175.641 2.98553 175.301 2.98553H171.049C170.708 2.98553 170.428 3.26556 170.428 3.6059V25.4393C170.428 25.7796 170.708 26.0597 171.049 26.0597ZM176.92 21.2346C177.446 25.3531 181.302 26.5465 185.071 26.5465C188.841 26.5465 193.119 25.0602 193.119 20.5669C193.119 19.1753 192.244 16.7197 188.854 16.0434C186.334 15.4919 182.65 15.2033 182.65 13.6179C182.65 12.4547 184.106 12.3599 185.011 12.3599C185.692 12.3599 186.303 12.4892 186.756 12.7778C187.096 12.9975 187.325 13.3034 187.419 13.7428C187.484 14.0315 187.729 14.234 188.027 14.234H191.861C192.046 14.234 192.21 14.1607 192.331 14.0186C192.451 13.8764 192.503 13.7084 192.473 13.5231C191.908 9.75354 188.294 8.80576 184.817 8.80576C181.522 8.80576 177.157 9.90432 177.157 13.9453C177.157 18.4688 181.487 18.5679 184.946 19.4381C185.916 19.6622 187.63 19.9206 187.63 21.2174C187.63 22.5141 186.11 22.9966 185.046 22.9966C184.27 22.9966 183.529 22.8027 183.008 22.415C182.577 22.0833 182.263 21.6309 182.15 21.045C182.094 20.7478 181.84 20.541 181.543 20.541H177.541C177.356 20.541 177.196 20.6142 177.076 20.7521C176.955 20.89 176.903 21.058 176.925 21.2389L176.92 21.2346ZM29.8465 22.3418H29.8293C27.2746 22.3418 26.5035 19.8216 26.5035 17.689C26.5035 15.5565 27.2789 13.0018 29.8293 13.0018H29.8465C32.3883 13.0148 33.1896 15.5608 33.1896 17.689C33.1896 19.8172 32.384 22.3332 29.8465 22.3418ZM29.8465 8.80145H29.8293C24.6251 8.80145 21.0063 12.6486 21.0063 17.689C21.0063 22.7295 24.6251 26.5422 29.8293 26.5422H29.8465C35.0421 26.5336 38.6867 22.7252 38.6867 17.689C38.6867 12.6529 35.0421 8.81007 29.8465 8.80145ZM0.620451 26.0597H5.39382C5.73416 26.0597 6.01418 25.7796 6.01418 25.4393V16.556H13.9325V25.4393C13.9325 25.7796 14.2125 26.0597 14.5528 26.0597H19.3219C19.6622 26.0597 19.9422 25.7796 19.9422 25.4393V3.6059C19.9422 3.26556 19.6622 2.98553 19.3219 2.98553H14.5528C14.2125 2.98553 13.9325 3.26556 13.9325 3.6059V11.3906H6.00987V3.6059C6.00987 3.26556 5.72985 2.98553 5.38951 2.98553H0.620451C0.280112 2.98553 8.57977e-05 3.26556 8.57977e-05 3.6059V25.4393C8.57977e-05 25.7796 0.280112 26.0597 0.620451 26.0597ZM40.2161 26.0597H44.4682C44.8085 26.0597 45.0886 25.7796 45.0886 25.4393V17.8829C45.0886 14.458 45.9286 13.3249 47.9018 13.3249C49.388 13.3249 49.9696 14.5528 49.9696 16.5259V25.4393C49.9696 25.7796 50.2497 26.0597 50.59 26.0597H54.8421C55.1824 26.0597 55.4625 25.7796 55.4625 25.4393V17.8528C55.4625 15.1387 55.6865 13.3293 58.0473 13.3293C59.469 13.3293 60.3435 14.3977 60.3435 16.2071V25.4436C60.3435 25.7839 60.6235 26.064 60.9639 26.064H65.216C65.5563 26.064 65.8363 25.7839 65.8363 25.4436V16.0434C65.8363 12.8424 65.2547 8.80576 59.9213 8.80576C57.6596 8.80576 56.0096 9.74492 54.687 11.5199C53.7823 9.48213 51.9083 8.80576 49.8059 8.80576C47.7036 8.80576 45.9933 9.90432 44.9895 11.5845H44.9249V9.90863C44.9249 9.56829 44.6448 9.28827 44.3045 9.28827H40.2118C39.8715 9.28827 39.5914 9.56829 39.5914 9.90863V25.4393C39.5914 25.7796 39.8715 26.0597 40.2118 26.0597H40.2161ZM75.6459 15.9443H72.2382C72.5526 13.9582 73.7891 12.5883 75.6459 12.5236C75.6933 12.5236 75.7406 12.5236 75.7923 12.5236C77.6362 12.5236 78.9588 14.0746 79.0579 15.9486H75.6459V15.9443ZM75.6459 8.80576C70.7648 8.879 66.741 12.5409 66.741 17.6287C66.741 23.156 70.334 26.4345 75.6459 26.5465C75.7363 26.5465 75.8268 26.5465 75.9216 26.5465C79.3853 26.5465 82.7111 25.1119 83.9863 21.8334C84.0639 21.6353 84.038 21.4328 83.9217 21.2605C83.8011 21.0881 83.6201 20.989 83.409 20.989H79.5016C79.2733 20.989 79.0794 21.1011 78.9631 21.2992C78.3729 22.3202 77.1882 22.8329 75.9819 22.8329C75.8656 22.8329 75.7536 22.8329 75.6416 22.82C73.5263 22.6778 72.3243 21.2001 72.2339 19.0159H84.5464C84.8049 13.3293 81.7978 8.80145 75.788 8.80145C75.7406 8.80145 75.6889 8.80145 75.6416 8.80145L75.6459 8.80576Z" fill="#064978"/>
</g>
</svg>
